<svg width="24" height="24" viewBox="0 0 24 24" fill="none" xmlns="http://www.w3.org/2000/svg">
<path d="M8.84995 17.825L11.9999 15.925L15.1499 17.85L14.3249 14.25L17.0999 11.85L13.4499 11.525L11.9999 8.12501L10.5499 11.5L6.89995 11.825L9.67495 14.25L8.84995 17.825ZM11.9999 18.275L7.84995 20.775C7.66662 20.8917 7.47495 20.9417 7.27495 20.925C7.07495 20.9083 6.89995 20.8417 6.74995 20.725C6.59995 20.6083 6.48328 20.4627 6.39995 20.288C6.31662 20.1127 6.29995 19.9167 6.34995 19.7L7.44995 14.975L3.77495 11.8C3.60828 11.65 3.50428 11.479 3.46295 11.287C3.42095 11.0957 3.43328 10.9083 3.49995 10.725C3.56661 10.5417 3.66661 10.3917 3.79995 10.275C3.93328 10.1583 4.11661 10.0833 4.34995 10.05L9.19995 9.62501L11.0749 5.17501C11.1583 4.97501 11.2876 4.82501 11.4629 4.72501C11.6376 4.62501 11.8166 4.57501 11.9999 4.57501C12.1833 4.57501 12.3626 4.62501 12.5379 4.72501C12.7126 4.82501 12.8416 4.97501 12.9249 5.17501L14.7999 9.62501L19.6499 10.05C19.8833 10.0833 20.0666 10.1583 20.1999 10.275C20.3333 10.3917 20.4333 10.5417 20.4999 10.725C20.5666 10.9083 20.5793 11.0957 20.5379 11.287C20.4959 11.479 20.3916 11.65 20.2249 11.8L16.5499 14.975L17.6499 19.7C17.6999 19.9167 17.6833 20.1127 17.5999 20.288C17.5166 20.4627 17.3999 20.6083 17.2499 20.725C17.0999 20.8417 16.9249 20.9083 16.7249 20.925C16.5249 20.9417 16.3333 20.8917 16.1499 20.775L11.9999 18.275Z" fill="black"/>
</svg>
